<svg width="30" height="30" viewBox="0 0 30 30" fill="none" xmlns="http://www.w3.org/2000/svg">
<path d="M27.3633 4.72314H2.63672C1.18283 4.72314 0 5.90598 0 7.35986V22.6401C0 24.0939 1.18283 25.2768 2.63672 25.2768H27.3633C28.8172 25.2768 30 24.0939 30 22.6401V7.35986C30 5.90598 28.8172 4.72314 27.3633 4.72314ZM27.0192 6.48096L26.6672 6.77398L16.0461 15.6182C15.4399 16.1229 14.56 16.1229 13.9539 15.6182L3.33275 6.77398L2.98084 6.48096H27.0192ZM1.75781 7.74998L10.4116 14.956L1.75781 20.7154V7.74998ZM27.3633 23.519H2.63672C2.21203 23.519 1.85684 23.2162 1.77545 22.8152L11.8211 16.1296L12.8291 16.969C13.458 17.4927 14.2291 17.7546 15.0001 17.7546C15.771 17.7546 16.542 17.4927 17.171 16.969L18.1791 16.1296L28.2246 22.8151C28.1432 23.2162 27.788 23.519 27.3633 23.519ZM28.2422 20.7154L19.5884 14.9561L28.2422 7.74998V20.7154Z" fill="white"/>
</svg>
