<svg width="49" height="49" viewBox="0 0 49 49" fill="none" xmlns="http://www.w3.org/2000/svg">
<path d="M42.2143 7.1129H37.9355V10.2742H34.7742V11.3933C32.7462 7.89532 28.9709 5.53226 24.6454 5.53226H21.1941C16.8679 5.53226 13.0925 7.89611 11.0645 11.3933V10.2742H6.32258V13.4355H4.74194V10.2742H0V22.9194H4.74194V19.7581H6.32258V30.0323C6.32258 31.7718 7.45985 33.2362 9.02469 33.7618C7.85581 34.7774 7.1129 36.2695 7.1129 37.9355C7.1129 40.9861 9.59452 43.4677 12.6452 43.4677C15.6958 43.4677 18.1774 40.9861 18.1774 37.9355C18.1774 36.388 17.5373 34.9892 16.5098 33.9839H27.7482C26.7208 34.9892 26.0806 36.388 26.0806 37.9355C26.0806 40.9861 28.5623 43.4677 31.6129 43.4677C34.6635 43.4677 37.1452 40.9861 37.1452 37.9355C37.1452 36.388 36.505 34.9892 35.4776 33.9839H35.5645C37.1807 33.9839 38.5693 33.0062 39.181 31.6129H49V13.8986L42.2143 7.1129ZM3.16129 21.3387H1.58065V11.8548H3.16129V21.3387ZM6.32258 18.1774H4.74194V15.0161H6.32258V18.1774ZM21.1933 7.1129H24.6446C30.0117 7.1129 34.4051 11.3127 34.741 16.5968H14.2258V18.1774H34.726C34.677 18.7133 34.5837 19.2404 34.451 19.7581H32.4032V21.3387H33.9033C33.6701 21.8651 33.3967 22.3756 33.0726 22.8609L28.8191 29.2419H17.0196L12.7653 22.8609C12.442 22.3756 12.1686 21.8651 11.9347 21.3387H30.8226V19.7581H11.3878C11.255 19.2404 11.1625 18.7133 11.1127 18.1774H12.6452V16.5968H11.0969C11.4328 11.3127 15.8262 7.1129 21.1933 7.1129ZM34.7742 23.1098V29.2419H30.719L34.3885 23.7381C34.5252 23.5326 34.6509 23.3224 34.7742 23.1098ZM11.0645 23.1098C11.1878 23.3216 11.3135 23.5326 11.4502 23.7373L15.1197 29.2419H11.0645V23.1098ZM16.5968 37.9355C16.5968 40.1144 14.8241 41.8871 12.6452 41.8871C10.4662 41.8871 8.69355 40.1144 8.69355 37.9355C8.69355 35.7566 10.4662 33.9839 12.6452 33.9839C14.8241 33.9839 16.5968 35.7566 16.5968 37.9355ZM35.5645 37.9355C35.5645 40.1144 33.7918 41.8871 31.6129 41.8871C29.434 41.8871 27.6613 40.1144 27.6613 37.9355C27.6613 35.7566 29.434 33.9839 31.6129 33.9839C33.7918 33.9839 35.5645 35.7566 35.5645 37.9355ZM37.9355 30.0323C37.9355 31.3395 36.8717 32.4032 35.5645 32.4032H10.2742C8.967 32.4032 7.90323 31.3395 7.90323 30.0323V11.8548H9.48387V29.2419C9.48387 30.1137 10.1928 30.8226 11.0645 30.8226H34.7742C35.6459 30.8226 36.3548 30.1137 36.3548 29.2419V11.8548H37.9355V30.0323ZM47.4194 30.0323H39.5161V10.2742V8.69355H41.5599L47.4194 14.553V30.0323Z" fill="#0754A6"/>
<path d="M45.8376 26.871H41.0957V28.4516H45.8376V26.871Z" fill="#0754A6"/>
<path d="M45.8376 23.7097H41.0957V25.2903H45.8376V23.7097Z" fill="#0754A6"/>
<path d="M31.6132 35.5645C30.306 35.5645 29.2422 36.6283 29.2422 37.9355C29.2422 39.2427 30.306 40.3064 31.6132 40.3064C32.9203 40.3064 33.9841 39.2427 33.9841 37.9355C33.9841 36.6283 32.9203 35.5645 31.6132 35.5645ZM31.6132 38.7258C31.1777 38.7258 30.8228 38.3709 30.8228 37.9355C30.8228 37.5 31.1777 37.1452 31.6132 37.1452C32.0486 37.1452 32.4035 37.5 32.4035 37.9355C32.4035 38.3709 32.0486 38.7258 31.6132 38.7258Z" fill="#0754A6"/>
<path d="M12.6464 35.5645C11.3392 35.5645 10.2754 36.6283 10.2754 37.9355C10.2754 39.2427 11.3392 40.3064 12.6464 40.3064C13.9536 40.3064 15.0173 39.2427 15.0173 37.9355C15.0173 36.6283 13.9536 35.5645 12.6464 35.5645ZM12.6464 38.7258C12.2109 38.7258 11.856 38.3709 11.856 37.9355C11.856 37.5 12.2109 37.1452 12.6464 37.1452C13.0818 37.1452 13.4367 37.5 13.4367 37.9355C13.4367 38.3709 13.0818 38.7258 12.6464 38.7258Z" fill="#0754A6"/>
</svg>
